<svg width="50" height="50" viewBox="0 0 50 50" fill="none" xmlns="http://www.w3.org/2000/svg">

    <!--scills-->

    <g id="codeSvg">
        <path fill-rule="evenodd" clip-rule="evenodd"
              d="M18.3125 42.0645L27.2623 6.6875L31.4375 7.87241L22.4878 43.3125L18.3125 42.0645Z" fill="#7572D5"/>
        <path fill-rule="evenodd" clip-rule="evenodd"
              d="M13.5025 12.6875L16.5625 15.9278L7.99501 25.0001L16.5625 34.0721L13.5025 37.3125L1.875 25.0001L13.5025 12.6875Z"
              fill="#7572D5"/>
        <path fill-rule="evenodd" clip-rule="evenodd"
              d="M36.4976 12.6875L33.4375 15.9278L42.0051 25.0001L33.4375 34.0721L36.4976 37.3125L48.125 25.0001L36.4976 12.6875Z"
              fill="#7572D5"/>
    </g>
    <g id="css">
        <path d="M38.0508 10.8437L12.946 10.8377L13.3515 15.7547L32.6381 15.7577L32.1519 20.8502H19.5035L19.9608 25.6742H31.7358L31.0392 32.2806L25.4969 33.7886L19.8663 32.2701L19.508 28.3134H14.5359L15.0877 35.5411L25.4969 38.7341L35.7309 35.8652L38.0493 10.8452L38.0508 10.8437ZM5.49844 2.56873H45.4984L41.86 42.9999L25.4542 47.5687L9.13993 42.9968L5.49844 2.56873Z"
              fill="#7572D5"/>
    </g>

    <g id="figma">
        <path d="M17.7083 4.16663C14.2565 4.16663 11.4583 6.96486 11.4583 10.4166C11.4583 13.8684 14.2565 16.6666 17.7083 16.6666H32.2916C35.7435 16.6666 38.5416 13.8684 38.5416 10.4166C38.5416 6.96486 35.7435 4.16663 32.2916 4.16663H17.7083Z"
              fill="#7572D5"/>
        <path d="M32.2917 18.75C28.8398 18.75 26.0417 21.5481 26.0417 25C26.0417 28.4519 28.8398 31.25 32.2917 31.25C35.7436 31.25 38.5417 28.4519 38.5417 25C38.5417 21.5481 35.7436 18.75 32.2917 18.75Z"
              fill="#7572D5"/>
        <path d="M11.4583 25C11.4583 21.5481 14.2565 18.75 17.7083 18.75H23.9583V31.25H17.7083C14.2565 31.25 11.4583 28.4519 11.4583 25Z"
              fill="#7572D5"/>
        <path d="M17.7083 33.3334C14.2565 33.3334 11.4583 36.1315 11.4583 39.5834C11.4583 43.0352 14.2565 45.8334 17.7083 45.8334C21.1602 45.8334 23.9583 43.0352 23.9583 39.5834V33.3334H17.7083Z"
              fill="#7572D5"/>
    </g>
    <g>
        <g clip-path="url(#clip0_20_1854)" id="react">
            <path d="M47.8125 25C47.8125 22.0833 44.6875 19.375 39.4792 17.5L38.5417 17.1875V16.7708C39.6875 11.0416 38.8542 6.7708 36.25 5.2083C33.6458 3.6458 29.7917 5.10414 25.625 8.74997L25 9.37497L24.7917 9.16664H24.5833C20.3125 5.2083 16.1458 3.85414 13.5417 5.31247C10.9375 6.7708 10.2083 10.8333 11.25 16.1458C11.3596 16.4838 11.4295 16.8333 11.4583 17.1875L10.3125 17.6041C5.20833 19.375 2.1875 22.0833 2.1875 25C2.1875 27.9166 5.52083 30.8333 10.7292 32.7083L11.4583 32.9166C11.3296 33.2854 11.2593 33.672 11.25 34.0625C10.2083 39.2708 11.1458 43.2291 13.5417 44.6875C15.9375 46.1458 20.3125 44.7916 24.4792 41.1458L25.1042 40.625L25.9375 41.4583C28.8542 43.9583 31.7708 45.3125 34.0625 45.3125C34.8708 45.3309 35.6671 45.1137 36.3542 44.6875C38.9583 43.2291 39.8958 38.9583 38.75 33.5416V33.3333C38.705 33.1619 38.6702 32.988 38.6458 32.8125H38.9583C44.4792 30.8333 47.8125 28.0208 47.8125 25ZM44.7917 25C44.7917 26.25 42.5 28.4375 38.0208 29.8958H37.8125C37.2664 28.2202 36.6051 26.5843 35.8333 25C36.5625 23.3333 37.1875 21.6666 37.7083 20.1041L38.5417 20.3125C42.7083 21.7708 44.7917 23.75 44.7917 25ZM27.9167 39.1666L27.0833 38.5416C28.2761 37.2201 29.3891 35.8287 30.4167 34.375L35.7292 33.5416C35.8333 33.75 35.8333 33.9583 35.9375 34.0625C36.3087 35.9492 36.379 37.8829 36.1458 39.7916C35.9995 40.7045 35.5608 41.5452 34.8958 42.1875C33.8542 42.8125 31.0417 41.9791 27.9167 39.1666ZM26.5625 34.5833L25.1042 36.4583L23.4375 34.5833H26.5625ZM12.2917 20C12.8152 21.7174 13.4771 23.3895 14.2708 25C13.4765 26.646 12.8146 28.3528 12.2917 30.1041L11.6667 29.8958C9.84256 29.3201 8.1454 28.4008 6.66667 27.1875C6.28377 26.9455 5.95605 26.6257 5.7048 26.2488C5.45356 25.872 5.2844 25.4465 5.20833 25C5.20833 23.75 7.29167 21.7708 11.25 20.4166L12.2917 20ZM23.4375 15.4166L25 13.6458L26.5625 15.4166H23.4375ZM34.8958 7.81247C36.0417 8.43747 36.6667 11.5625 35.7292 16.1458C35.734 16.2022 35.7272 16.2591 35.7093 16.3128C35.6914 16.3665 35.6627 16.416 35.625 16.4583L30.4167 15.625C29.3891 14.1712 28.2761 12.7799 27.0833 11.4583L27.7083 10.9375C31.0417 8.0208 33.75 7.18747 34.8958 7.81247ZM17.5 18.8541L16.6667 20.2083L15.9375 21.5625C15.625 20.8333 15.4167 20.1041 15.1042 19.2708L17.5 18.8541ZM15.1042 30.7291C15.4167 30 15.625 29.2708 15.9375 28.4375L16.6667 29.7916L17.5 31.1458L15.1042 30.7291ZM32.5 25C31.9699 26.142 31.3788 27.2548 30.7292 28.3333C30.1042 29.4791 29.375 30.5208 28.75 31.5625H21.25C20.5208 30.4166 19.7917 29.375 19.2708 28.3333C18.6161 27.2577 18.0248 26.1447 17.5 25C18.0054 23.8458 18.5974 22.7315 19.2708 21.6666C19.8693 20.5874 20.5301 19.544 21.25 18.5416C23.7457 18.3334 26.2543 18.3334 28.75 18.5416C29.4792 19.5833 30.1042 20.625 30.7292 21.6666C31.4026 22.7315 31.9946 23.8458 32.5 25ZM33.3333 20.2083L32.5 18.8541L34.8958 19.375C34.6639 20.1208 34.3856 20.8514 34.0625 21.5625L33.3333 20.2083ZM32.5 31.1458L33.3333 29.7916L34.0625 28.3333L35 30.7291L32.5 31.1458ZM22.8125 11.3541H22.9167L19.5833 15.5208L14.375 16.3541C14.2708 16.0416 14.2708 15.8333 14.1667 15.5208C13.3333 11.25 13.9583 8.3333 15 7.81247C15.2766 7.63082 15.61 7.55672 15.9375 7.60414C17.3958 7.60414 19.8958 8.6458 22.7083 11.1458L22.8125 11.3541ZM14.1667 34.5833C14.1857 34.2617 14.256 33.9452 14.375 33.6458L19.6875 34.375C20.689 35.8481 21.8034 37.2412 23.0208 38.5416L22.8125 38.75L22.6042 38.9583C21.184 40.2738 19.5211 41.2999 17.7083 41.9791C17.3107 42.1874 16.875 42.3133 16.4275 42.3491C15.98 42.3849 15.5299 42.3299 15.1042 42.1875C13.9583 41.5625 13.3333 38.75 14.1667 34.5833Z"
                  fill="#7572D5"/>
            <path d="M25 20.4166C24.0894 20.3959 23.1932 20.647 22.4259 21.1379C21.6586 21.6287 21.0549 22.3371 20.692 23.1726C20.3291 24.008 20.2233 24.9327 20.3882 25.8285C20.5532 26.7243 20.9812 27.5507 21.6179 28.2022C22.2545 28.8536 23.0709 29.3006 23.9627 29.4861C24.8545 29.6715 25.7813 29.587 26.6249 29.2434C27.4685 28.8998 28.1905 28.3126 28.6989 27.5568C29.2073 26.801 29.4789 25.9108 29.4792 24.9999C29.4795 23.8022 29.0109 22.6519 28.1738 21.7953C27.3366 20.9387 26.1974 20.4438 25 20.4166Z"
                  fill="#7572D5"/>
        </g>
        <defs>
            <clipPath id="clip0_20_1854">
                <rect width="50" height="50" fill="white"/>
            </clipPath>
        </defs>
    </g>
    <g id="styledComponents">
        <path d="M37.2591 6.25L36.9888 7.64963C36.5708 10.3021 36.7221 11.061 37.8682 12.0454L38.9747 12.9546L37.8286 18.0305C37.1438 21.0588 36.3041 23.5968 35.7707 24.4308C35.313 25.1503 34.7796 26.2099 34.6642 26.7791C34.4732 27.4592 33.8245 28.1429 32.8334 28.7478C31.9576 29.2418 30.2385 30.5663 29.0203 31.6294C28.0472 32.4993 27.3769 33.0326 27.0129 33.2617L25.8235 34.196C25.4415 34.8046 25.2253 35.295 25.1424 35.6672C25.0595 36.0503 25.1063 36.3044 25.2289 36.4905C25.3478 36.6695 25.5532 36.7948 25.8343 36.8736C26.1671 36.951 26.5097 36.9788 26.8507 36.9559C27.6222 36.9035 28.3858 36.7691 29.1284 36.555C29.3807 36.487 29.5789 36.4225 29.7519 36.3653C30.0186 36.0395 30.6349 35.4238 31.7269 34.3535C34.6246 31.5149 35.731 29.9613 34.5885 30.3802C34.1669 30.5305 34.3579 30.1511 35.0823 29.3922C36.6104 27.9138 37.4862 25.6801 39.317 18.6748C40.7659 13.1443 40.7659 13.0656 41.8327 13.0656C42.3336 13.0656 43.75 13.1515 43.75 13.1515V6.25H40.4992H37.2591ZM24.4216 18.0806C23.3692 18.0735 21.1058 19.6664 14.3303 25.1611C14.0383 25.8519 14.0131 26.328 14.1464 26.6359C14.2329 26.8471 14.3915 26.9938 14.6114 27.1012C14.8276 27.2086 15.1087 27.2731 15.4187 27.2981C16.035 27.3518 16.763 27.2552 17.3504 27.1406L17.7469 27.0511C17.8826 26.8704 18.0608 26.7254 18.2659 26.6287C18.6839 26.3996 20.4391 24.8103 22.1943 23.1064C25.2829 19.9993 26.0073 18.5961 24.7495 18.1415C24.6463 18.1007 24.5326 18.08 24.4216 18.0806ZM32.336 20.2391C31.4098 20.2642 29.7411 21.3309 26.8831 23.5968C25.4487 24.753 24.5405 25.3759 24.0539 25.5047L22.1654 26.9867C21.4554 28.2753 21.3509 29.0736 21.5383 29.5139C21.5852 29.6225 21.6533 29.7208 21.7387 29.8031C21.8241 29.8855 21.925 29.9502 22.0357 29.9936C22.311 30.1015 22.6046 30.1562 22.9006 30.1546C23.608 30.1471 24.3112 30.0448 24.991 29.8504C25.3453 29.7559 25.6952 29.6461 26.0398 29.521L26.1443 29.4781L26.3353 29.3779C26.6957 28.9161 27.5246 28.0462 28.5626 27.044C31.8423 23.9011 33.5181 21.6674 33.1758 20.8333C33.0208 20.4288 32.7541 20.2248 32.336 20.2391ZM23.5998 24.1051C23.3331 24.1337 22.7349 24.5919 21.6573 25.5298C20.1003 26.8972 18.4028 27.6847 17.8154 27.3339C17.6788 27.3645 17.5419 27.3932 17.4045 27.4198C16.8062 27.5379 16.0602 27.6346 15.3934 27.5809C15.0793 27.562 14.7714 27.4855 14.4852 27.3554C14.2153 27.2328 13.9999 27.0164 13.8797 26.7468C13.7464 26.4247 13.7464 26.0238 13.8978 25.5119L11.5551 27.4234L6.2536 31.7798V38.8424L23.6251 25.2506C23.6217 25.1018 23.6411 24.9533 23.6827 24.8103C23.8161 24.3306 23.8089 24.0872 23.5998 24.1087V24.1051ZM31.0746 26.3925C30.8115 26.3925 30.3718 26.7612 29.669 27.5021C28.714 28.5152 27.2111 29.496 26.4146 29.6964L26.292 29.7609C26.1613 29.8145 26.0291 29.8646 25.8956 29.9112C25.6794 29.9828 25.3982 30.0687 25.0739 30.1546C24.4252 30.33 23.6179 30.4911 22.897 30.4732C22.5572 30.4728 22.2207 30.4072 21.9059 30.2799C21.6093 30.1585 21.3716 29.9275 21.2428 29.6356C21.0338 29.138 21.1167 28.44 21.5744 27.4485L6.25 39.4366V43.75H12.9823L27.2615 32.6103C27.6327 32.2022 28.1914 31.6438 28.9446 30.9457C30.9629 29.0879 31.4206 28.4472 31.4206 27.4986C31.4206 26.7612 31.3377 26.3889 31.0746 26.3889V26.3925ZM34.4732 33.3727L33.2514 34.5826C32.5667 35.2269 31.3449 36.0216 30.5088 36.3617L30.343 36.4333L30.3322 36.4512L30.2961 36.487C30.2637 36.512 30.2493 36.5156 30.2241 36.5263C29.8903 36.6518 29.5512 36.7629 29.2077 36.8592C28.4441 37.08 27.6586 37.218 26.8651 37.2709C26.4899 37.2948 26.1132 37.2622 25.7478 37.1743C25.4307 37.1049 25.1508 36.9213 24.9622 36.6588C24.7892 36.3939 24.7387 36.0395 24.836 35.6028C24.9134 35.2919 25.0284 34.9914 25.1784 34.7079L13.6563 43.75H28.9807L30.8115 41.6667C33.3271 38.7529 34.4732 36.6695 34.4732 34.8869V33.3727Z"
              fill="#7572D5"/>
    </g>
    <g id="typeScript">
        <path d="M5 25V45H45V5H5V25ZM37.235 23.4067C38.2517 23.66 39.025 24.1117 39.7367 24.8483C40.105 25.2417 40.6517 25.9583 40.695 26.1317C40.7083 26.1817 38.9683 27.3483 37.915 28.0033C37.8767 28.0283 37.7233 27.8633 37.5533 27.61C37.0367 26.86 36.4983 26.5367 35.6733 26.48C34.46 26.3967 33.68 27.0317 33.6867 28.0917C33.6756 28.3523 33.7343 28.6112 33.8567 28.8417C34.1233 29.3933 34.62 29.725 36.1733 30.3967C39.0383 31.63 40.2633 32.4417 41.025 33.5967C41.875 34.885 42.0667 36.9433 41.4883 38.4733C40.855 40.1367 39.28 41.2667 37.0633 41.64C36.3783 41.7617 34.7533 41.7433 34.0167 41.61C32.41 41.3233 30.8867 40.53 29.9467 39.4883C29.5783 39.0833 28.86 38.0217 28.905 37.9467C28.9233 37.92 29.0883 37.8183 29.2717 37.7117C29.4517 37.61 30.1233 37.2217 30.7583 36.8533L31.9083 36.1867L32.15 36.5433C32.4867 37.0567 33.2217 37.7617 33.6667 37.9967C34.9433 38.67 36.695 38.575 37.5583 37.8C37.7319 37.6538 37.8694 37.4693 37.9599 37.2612C38.0504 37.053 38.0915 36.8267 38.08 36.6C38.08 36.1367 38.0217 35.9333 37.78 35.5833C37.47 35.14 36.835 34.7667 35.0317 33.9833C32.9683 33.095 32.08 32.5433 31.2667 31.6667C30.759 31.0881 30.3841 30.4055 30.1683 29.6667C30.0167 29.1017 29.9783 27.685 30.0983 27.115C30.5233 25.12 32.0283 23.7317 34.2 23.3183C34.905 23.185 36.5433 23.235 37.235 23.4067ZM27.845 25.0767L27.8583 26.715H22.65V41.5083H18.9667V26.715H13.7633V25.1083C13.7633 24.2183 13.7817 23.475 13.8067 23.4583C13.8267 23.4317 16.995 23.4183 20.835 23.425L27.8267 23.445L27.845 25.0767Z"
              fill="#7572D5"/>
    </g>

    <!--social-->

    <g id="instagram">
        <path d="M15.6516 2.09998H5.34844C3.55687 2.09998 2.1 3.55628 2.1 5.34715V8.77799V15.6528C2.1 17.4437 3.55687 18.9 5.34844 18.9H15.6516C17.4431 18.9 18.9 17.4437 18.9 15.6528V8.77143V5.34058C18.8934 3.55628 17.4366 2.09998 15.6516 2.09998ZM16.5834 4.03516H16.9575V4.40251V6.88217L14.1159 6.88873L14.1094 4.04172L16.5834 4.03516ZM8.09812 8.77143C8.63625 8.03016 9.50906 7.53816 10.4934 7.53816C11.4778 7.53816 12.3506 8.0236 12.8887 8.77143C13.2431 9.25687 13.4466 9.85382 13.4466 10.4967C13.4466 12.1236 12.1209 13.4552 10.4869 13.4552C8.85281 13.4552 7.54031 12.1236 7.54031 10.4967C7.54031 9.85382 7.75031 9.25687 8.09812 8.77143ZM17.2594 15.6462C17.2594 16.5318 16.5375 17.2534 15.6516 17.2534H5.34844C4.4625 17.2534 3.74062 16.5318 3.74062 15.6462V8.77143H6.2475C6.03094 9.30279 5.90625 9.88662 5.90625 10.4967C5.90625 13.0288 7.96687 15.0887 10.5 15.0887C13.0331 15.0887 15.0937 13.0288 15.0937 10.4967C15.0937 9.88662 14.9691 9.30279 14.7525 8.77143H17.2594V15.6462Z"
              fill="#7572D5"/>
    </g>
    <g id="telegram">
        <path d="M18.9057 4.76449L16.3705 16.7208C16.1791 17.5644 15.6804 17.7745 14.9717 17.3772L11.1085 14.5305L9.24472 16.3235C9.0383 16.5299 8.86608 16.7022 8.46824 16.7022L8.74607 12.7681L15.9054 6.29885C16.2169 6.02162 15.8376 5.86741 15.4218 6.14524L6.57084 11.7186L2.76043 10.5257C1.93174 10.2671 1.91674 9.69701 2.93325 9.29917L17.837 3.55716C18.5271 3.29854 19.1308 3.71018 18.9057 4.76449Z"
              fill="#1F1F20"/>
    </g>
    <g id="vk">
        <path d="M18.1696 13.9941C17.8038 13.5391 17.3881 13.1314 16.9861 12.737C16.8432 12.5968 16.6954 12.4518 16.5529 12.3076C16.1439 11.8932 16.129 11.7375 16.4529 11.2668C16.6769 10.9424 16.9145 10.6175 17.1442 10.3033C17.3526 10.0183 17.568 9.72351 17.7746 9.42777L17.817 9.36697C18.2117 8.80103 18.6199 8.21583 18.8372 7.50988C18.8936 7.32363 18.9528 7.04955 18.8174 6.82036C18.682 6.59137 18.4195 6.52151 18.2337 6.48888C18.1418 6.47273 18.0506 6.47053 17.9659 6.47053L15.3809 6.46861L15.3595 6.46842C14.9687 6.46842 14.7053 6.65927 14.5544 7.05194C14.4103 7.42713 14.252 7.82665 14.0714 8.20653C13.7119 8.96298 13.2554 9.83425 12.5948 10.5609L12.5669 10.5918C12.4889 10.6787 12.4005 10.777 12.3359 10.777C12.326 10.777 12.3152 10.7751 12.303 10.7711C12.1662 10.7159 12.0744 10.3726 12.0785 10.213C12.0786 10.2108 12.0786 10.2086 12.0786 10.2064L12.0768 7.1105C12.0768 7.09976 12.0761 7.08913 12.0747 7.07849C12.009 6.57522 11.8633 6.26195 11.3129 6.15026C11.2983 6.14724 11.2834 6.14575 11.2685 6.14575H8.5806C8.14268 6.14575 7.90138 6.33018 7.67456 6.60623C7.61334 6.68002 7.48589 6.83364 7.54906 7.01998C7.61315 7.20911 7.8212 7.24955 7.88894 7.26268C8.22522 7.32899 8.41477 7.54213 8.46846 7.91453C8.56219 8.56121 8.57371 9.25144 8.50471 10.0868C8.48547 10.3189 8.44742 10.4982 8.38471 10.6514C8.37015 10.6872 8.31849 10.8038 8.26582 10.8039C8.24908 10.8039 8.20067 10.7971 8.11248 10.7341C7.90397 10.5861 7.75142 10.3749 7.57357 10.114C6.96853 9.22796 6.46074 8.25191 6.02097 7.12938C5.85787 6.71615 5.55327 6.48481 5.16289 6.478C4.73395 6.47125 4.34504 6.46799 3.97413 6.46799C3.56886 6.46799 3.19314 6.47187 2.82625 6.47978C2.51217 6.48553 2.29492 6.58308 2.18061 6.76996C2.06611 6.95697 2.07356 7.20264 2.20276 7.50001C3.23702 9.88254 4.17478 11.6149 5.24345 13.1171C5.99225 14.1683 6.74333 14.8959 7.60686 15.4068C8.51664 15.9461 9.5362 16.2083 10.7237 16.2083C10.8583 16.2083 10.9975 16.2048 11.1379 16.198C11.8279 16.1632 12.0839 15.9044 12.1163 15.2082C12.1317 14.8525 12.1692 14.4793 12.338 14.1611C12.4445 13.9606 12.5439 13.9606 12.5765 13.9606C12.6394 13.9606 12.7174 13.9906 12.8011 14.0468C12.9513 14.1484 13.0801 14.2845 13.1857 14.4034C13.285 14.5163 13.3833 14.6304 13.4817 14.7446C13.6939 14.9909 13.9134 15.2456 14.1427 15.4871C14.6445 16.0162 15.1973 16.2488 15.8323 16.1983H18.2023C18.2073 16.1983 18.2124 16.1981 18.2175 16.1978C18.4536 16.1817 18.6582 16.0459 18.7786 15.8254C18.9279 15.5522 18.9249 15.2037 18.7706 14.893C18.5956 14.5415 18.3685 14.2413 18.1696 13.9941Z"
              fill="#7572D5"/>
    </g>

    <!--logo-->
    <g id="logotype">
        <path d="M517.61664 572.1344m-359.57248 0a359.57248 359.57248 0 1 0 719.14496 0 359.57248 359.57248 0 1 0-719.14496 0Z"
              fill="#5EB1BE"/>
        <path d="M517.61664 939.136c-202.368 0-367.0016-164.63872-367.0016-367.0016s164.63872-367.0016 367.0016-367.0016 367.0016 164.63872 367.0016 367.0016-164.63872 367.0016-367.0016 367.0016z m0-719.14496c-194.17088 0-352.13824 157.96736-352.13824 352.13824s157.96736 352.13824 352.13824 352.13824 352.13824-157.96736 352.13824-352.13824-157.96736-352.13824-352.13824-352.13824z"
              fill="#6C0000"/>
        <path d="M561.02912 377.76896C321.12128 309.49376 50.2784 292.63872 20.8896 395.904c-29.38368 103.24992 209.75104 231.53152 449.65888 299.80672s510.75072 85.13024 540.13952-18.11968c29.38368-103.26528-209.74592-231.54688-449.65888-299.82208z m429.27104 294.02112c-18.86208 66.2784-242.88768 82.65728-514.46784 5.36576C204.24192 599.86432 22.41024 467.98336 41.27744 401.70496c18.86208-66.2784 242.8928-82.67776 514.47296-5.38624 271.58528 77.29152 453.41184 209.18784 434.54976 275.47136z"
              fill="#6B0306"/>
        <path d="M274.6368 321.51552c-10.9824 8.23808-23.54688 22.8864-29.52192 30.208 87.56224 1.52576 186.95168 19.61472 306.18112 53.55008 131.90144 37.53984 237.91616 81.94048 314.76224 131.46624-1.03424-9.76896-6.43584-35.7888-8.23808-45.312-84.59776-49.73568-180.79744-99.39968-293.48352-131.46624-102.56384-29.18912-197.10464-33.42336-289.69984-38.44608z"
              fill="#5EB1BE"/>
        <path d="M660.39808 439.97696m-92.60032 0a92.60032 92.60032 0 1 0 185.20064 0 92.60032 92.60032 0 1 0-185.20064 0Z"
              fill="#FFC700"/>
        <path d="M660.44416 538.79296h-0.00512a98.9696 98.9696 0 0 1-27.0848-3.79904c-52.39296-14.91456-82.88768-69.66784-67.98336-122.0608 12.02688-42.2656 51.08224-71.77728 94.976-71.77728 9.11872 0 18.23232 1.27488 27.0848 3.79904a98.15552 98.15552 0 0 1 59.27424 46.95552 98.16576 98.16576 0 0 1 8.70912 75.10528c-12.02688 42.2656-51.07712 71.77728-94.97088 71.77728z m-0.09216-185.25184c-38.38464 0-72.54528 25.81504-83.06176 62.78144-13.03552 45.82912 13.63456 93.71648 59.45344 106.76224 7.75168 2.20672 15.72352 3.328 23.70048 3.328 38.38464 0 72.54016-25.81504 83.06176-62.78144 6.31808-22.20032 3.61472-45.52704-7.61344-65.69472s-29.6448-34.74432-51.84-41.06752a86.6304 86.6304 0 0 0-23.70048-3.328z"
              fill="#6C0000"/>
        <path d="M311.84896 443.4688m-52.52096 0a52.52096 52.52096 0 1 0 105.04192 0 52.52096 52.52096 0 1 0-105.04192 0Z"
              fill="#FFC700"/>
        <path d="M311.87456 502.19008c-5.42208 0-10.84416-0.76288-16.09728-2.25792-31.13472-8.86272-49.25952-41.40544-40.40192-72.54016 7.14752-25.1136 30.3616-42.65472 56.448-42.65472 5.41696 0 10.83392 0.76288 16.09216 2.25792a58.3424 58.3424 0 0 1 35.2256 27.90912 58.28608 58.28608 0 0 1 5.17632 44.63104c-7.14752 25.1136-30.3616 42.65472-56.44288 42.65472z m-0.04608-105.06752c-20.5824 0-38.89664 13.83936-44.53888 33.65888-6.9888 24.57088 7.30624 50.2528 31.872 57.2416a46.50496 46.50496 0 0 0 12.71296 1.78176c20.57728 0 38.8864-13.83936 44.52864-33.65888a46.06976 46.06976 0 0 0-4.08064-35.2256 46.00832 46.00832 0 0 0-27.79136-22.016 46.42816 46.42816 0 0 0-12.70272-1.78176z"
              fill="#6C0000"/>
        <path d="M455.73632 547.61984m-31.46752 0a31.46752 31.46752 0 1 0 62.93504 0 31.46752 31.46752 0 1 0-62.93504 0Z"
              fill="#FFC700"/>
        <path d="M455.7568 585.28256h-0.00512a37.5808 37.5808 0 0 1-10.32192-1.44384 37.41184 37.41184 0 0 1-22.59968-17.8944 37.38624 37.38624 0 0 1-3.31776-28.63104 37.79584 37.79584 0 0 1 36.20352-27.36128c3.4816 0 6.95296 0.48128 10.32704 1.44384 19.97312 5.6832 31.59552 26.56256 25.91232 46.53056a37.7856 37.7856 0 0 1-36.1984 27.35616z m-0.04096-62.9504a25.3696 25.3696 0 0 0-24.28928 18.36544 25.09312 25.09312 0 0 0 2.2272 19.21536 25.10848 25.10848 0 0 0 15.16544 12.01152c13.22496 3.7632 27.51488-4.32128 31.22688-17.38752a25.30816 25.30816 0 0 0-24.33024-32.2048z"
              fill="#6C0000"/>
        <path d="M703.04256 637.824m-19.69664 0a19.69664 19.69664 0 1 0 39.39328 0 19.69664 19.69664 0 1 0-39.39328 0Z"
              fill="#FFC700"/>
        <path d="M703.04768 663.71584a25.91744 25.91744 0 0 1-24.90368-32.97792c3.80416-13.37856 18.5088-21.65248 31.98464-17.81248a25.73312 25.73312 0 0 1 15.53408 12.29824 25.73824 25.73824 0 0 1 2.2784 19.69152 25.99424 25.99424 0 0 1-24.89344 18.80064z m-0.01536-39.3984a13.568 13.568 0 0 0-12.9792 9.81504 13.5168 13.5168 0 0 0 9.28768 16.67584c7.05024 1.99168 14.6944-2.30912 16.68608-9.28768a13.39904 13.39904 0 0 0-1.18272-10.2656 13.42464 13.42464 0 0 0-8.10496-6.41536 13.47584 13.47584 0 0 0-3.70688-0.52224z"
              fill="#6C0000"/>
        <path d="M464.57856 748.48256m-48.82432 0a48.82432 48.82432 0 1 0 97.64864 0 48.82432 48.82432 0 1 0-97.64864 0Z"
              fill="#FFC700"/>
        <path d="M464.59904 803.51232c-5.08416 0-10.15808-0.70656-15.08352-2.10944-29.17888-8.30976-46.1568-38.80448-37.85728-67.97312 6.69184-23.53664 28.44672-39.97184 52.89472-39.97184 5.07904 0 10.15296 0.70656 15.08352 2.10944 29.17888 8.30976 46.1568 38.80448 37.85728 67.97312-6.69184 23.53664-28.44672 39.97184-52.89472 39.97184z m-0.04096-97.67424c-18.93888 0-35.79392 12.73344-40.98048 30.97088-6.43584 22.60992 6.72256 46.24384 29.32736 52.67456a42.5984 42.5984 0 0 0 11.69408 1.6384c18.944 0 35.79392-12.73344 40.98048-30.97088 6.43584-22.60992-6.72256-46.24384-29.32736-52.67456a42.8544 42.8544 0 0 0-11.69408-1.6384z"
              fill="#6C0000"/>
        <path d="M153.81504 218.54208m-27.26912 0a27.26912 27.26912 0 1 0 54.53824 0 27.26912 27.26912 0 1 0-54.53824 0Z"
              fill="#6C0000"/>
    </g>
</svg>
